<?xml version="1.0" standalone="no"?>
<!DOCTYPE svg PUBLIC "-//W3C//DTD SVG 20010904//EN"
 "http://www.w3.org/TR/2001/REC-SVG-20010904/DTD/svg10.dtd">
<svg version="1.0" xmlns="http://www.w3.org/2000/svg"
 width="326.000000pt" height="326.000000pt" viewBox="0 0 326.000000 326.000000"
 preserveAspectRatio="xMidYMid meet">

<g transform="translate(0.000000,326.000000) scale(0.100000,-0.100000)"
fill="#000000" stroke="none">
<path d="M205 2091 c-103 -47 -115 -91 -115 -420 0 -283 6 -319 58 -374 42
-45 86 -58 211 -64 104 -6 114 -5 108 10 -8 21 2 22 29 3 18 -13 194 -14 1240
-13 980 2 1218 4 1216 15 -1 8 5 11 21 7 30 -8 73 9 87 34 9 17 8 20 -5 15 -8
-3 -12 -11 -9 -18 3 -6 -2 -2 -11 9 -17 22 -17 46 2 52 7 3 10 -3 7 -14 -4
-14 1 -18 21 -20 22 -1 30 6 46 40 21 47 26 186 9 233 -7 18 -7 30 1 40 7 9
10 68 7 181 -3 192 -11 214 -87 268 l-43 30 -446 0 c-437 0 -447 0 -444 -19 3
-16 1 -18 -11 -8 -7 6 -17 9 -20 5 -4 -3 -9 2 -13 11 -6 15 -68 16 -730 16
-610 0 -724 -2 -724 -14 0 -7 -11 -16 -25 -18 -19 -4 -25 -1 -25 13 0 18 -10
19 -157 18 -130 0 -165 -4 -198 -18z m2769 -79 c47 -12 66 -58 66 -160 0 -81
1 -83 23 -78 l22 6 -22 -11 c-18 -9 -23 -21 -23 -50 0 -21 5 -41 12 -45 6 -4
8 -3 5 3 -4 6 2 13 13 16 21 5 28 -7 10 -18 -6 -4 -8 -11 -5 -16 6 -8 -6 -12
-22 -6 -5 1 -10 -60 -13 -135 -5 -130 -6 -139 -30 -163 l-25 -25 -803 0 c-740
-1 -802 -2 -802 -17 0 -15 -1 -15 -13 0 -11 16 -33 17 -212 15 -188 -3 -200
-4 -210 -23 -5 -11 -19 -21 -30 -23 -18 -3 -18 -2 3 13 12 9 22 20 22 24 0 12
-357 14 -365 2 -3 -6 -2 -11 4 -11 6 0 8 -7 4 -16 -5 -13 -7 -13 -14 -2 -5 7
-9 9 -9 3 0 -5 -7 1 -16 13 -14 21 -22 22 -157 22 -119 0 -145 3 -163 18 -42
33 -44 50 -44 331 l0 271 29 32 29 33 164 5 c257 8 2537 1 2572 -8z m91 8 c-3
-5 -14 -10 -23 -9 -14 0 -13 2 3 9 27 11 27 11 20 0z m-1645 -726 c0 -8 -19
-13 -24 -6 -3 5 1 9 9 9 8 0 15 -2 15 -3z"/>
<path d="M1300 1940 c0 -5 -9 -10 -19 -10 -11 0 -30 -14 -42 -31 -19 -27 -22
-47 -26 -168 -5 -170 7 -225 56 -258 42 -28 90 -29 124 -3 21 17 26 18 31 5 3
-10 19 -15 45 -15 l39 0 1 125 1 125 -73 0 -73 0 -2 -36 c-2 -29 0 -35 13 -31
12 5 15 -2 15 -37 0 -57 -8 -76 -31 -76 -22 0 -21 -9 -20 188 0 135 -6 175
-22 142 -3 -6 -4 -5 -3 2 4 16 57 12 69 -5 4 -7 6 -29 5 -49 l-4 -38 65 0 64
0 -7 47 c-8 64 -34 104 -76 119 -42 15 -130 18 -130 4z"/>
<path d="M270 1700 l0 -240 45 0 45 0 0 108 c1 124 9 119 50 -25 l23 -83 54 0
54 0 0 188 c1 103 2 203 3 222 4 64 -1 70 -55 70 l-49 0 0 -104 0 -104 28 -7
c15 -4 22 -9 15 -12 -21 -8 -51 16 -61 49 -6 18 -20 66 -32 106 l-23 72 -48 0
-49 0 0 -240z m260 -10 c0 -5 -4 -10 -10 -10 -5 0 -10 5 -10 10 0 6 5 10 10
10 6 0 10 -4 10 -10z"/>
<path d="M2511 1700 l0 -240 64 0 64 0 0 240 0 240 -64 0 -63 0 -1 -240z"/>
<path d="M927 1914 c-4 -4 -7 -20 -7 -36 0 -18 -5 -28 -15 -28 -20 0 -20 -56
-1 -63 11 -5 15 -37 18 -152 4 -172 5 -175 100 -175 58 0 58 0 58 30 0 23 -4
30 -20 30 -22 0 -21 -3 -22 135 0 125 1 126 21 132 25 6 25 54 0 60 -11 3 -19
16 -21 37 -3 30 -5 31 -53 34 -28 2 -54 0 -58 -4z"/>
<path d="M654 1846 c-48 -22 -64 -76 -61 -211 3 -156 25 -185 141 -185 45 0
58 5 91 33 l38 33 1 142 c0 140 0 143 -26 168 -21 21 -37 27 -89 30 -42 3 -75
0 -95 -10z m96 -190 c0 -106 -3 -135 -14 -139 -8 -3 -17 -3 -20 0 -3 4 -6 66
-6 140 0 126 1 133 20 133 19 0 20 -7 20 -134z m-89 -71 c11 -4 18 -9 16 -12
-13 -13 -47 10 -46 30 1 16 2 18 6 5 2 -9 13 -20 24 -23z"/>
<path d="M1621 1851 c-13 -3 -34 -19 -45 -35 -19 -25 -21 -41 -21 -167 0 -138
0 -139 28 -166 25 -25 34 -28 100 -28 56 0 78 4 99 20 41 31 48 57 48 184 0
106 -2 121 -23 152 -12 18 -33 36 -47 40 -32 9 -108 9 -139 0z m89 -190 c0
-97 -3 -131 -14 -140 -20 -17 -26 14 -26 136 0 110 5 133 26 133 11 0 14 -25
14 -129z m-95 -131 c3 -5 1 -10 -4 -10 -6 0 -11 5 -11 10 0 6 2 10 4 10 3 0 8
-4 11 -10z"/>
<path d="M1933 1851 c-44 -19 -63 -80 -63 -196 0 -160 19 -193 120 -202 53 -5
64 -3 99 20 33 22 41 34 50 77 22 103 9 247 -26 282 -22 22 -143 35 -180 19z
m99 -88 c2 -16 2 -76 0 -135 -3 -99 -5 -108 -23 -108 -18 0 -19 8 -19 135 0
127 1 135 19 135 14 0 21 -8 23 -27z m-92 -23 c0 -5 -5 -10 -11 -10 -5 0 -7 5
-4 10 3 6 8 10 11 10 2 0 4 -4 4 -10z m24 -75 c-7 -16 -24 -21 -24 -6 0 8 7
13 27 20 1 1 0 -6 -3 -14z"/>
<path d="M2216 1845 c-22 -23 -29 -72 -24 -194 2 -71 8 -114 17 -124 20 -25
75 -32 110 -14 33 16 41 9 33 -30 -4 -24 -35 -32 -47 -13 -8 13 -115 13 -115
0 0 -5 5 -20 11 -34 32 -69 220 -59 256 14 9 17 13 83 13 213 l0 187 -54 0
c-30 0 -58 -5 -61 -10 -4 -7 -14 -5 -28 5 -28 19 -91 19 -111 0z m132 -162
c-3 -93 -5 -108 -20 -111 -16 -3 -18 7 -18 107 0 105 1 111 20 111 20 0 21 -5
18 -107z"/>
<path d="M2744 1846 c-49 -22 -64 -67 -64 -191 0 -77 4 -116 16 -140 35 -75
162 -88 232 -23 17 17 22 32 22 75 l0 53 -50 0 -50 0 0 -43 c0 -43 -13 -67
-37 -67 -9 0 -13 19 -13 69 l0 70 48 -1 c105 0 102 -1 102 36 0 19 -6 37 -12
39 -10 4 -10 6 0 6 15 1 16 55 1 83 -23 43 -130 62 -195 34z m96 -97 c0 -33
-3 -40 -17 -37 -13 2 -19 14 -21 41 -3 32 0 37 17 37 18 0 21 -6 21 -41z"/>
<path d="M570 2106 c0 -2 7 -7 16 -10 8 -3 12 -2 9 4 -6 10 -25 14 -25 6z"/>
</g>
</svg>
