<svg width="326" height="326" xmlns="http://www.w3.org/2000/svg">
 <g id="Layer_1">
  <title>Layer 1</title>
  <g fill="white">
   <g fill="#000000" transform="translate(0 326) scale(0.1 -0.1)">
    <path stroke="#000" fill="#0000ff" d="m224.88541,2051.08804c-103,-47 -115,-91 -115,-420c0,-283 6,-319 58,-374c42,-45 86,-58 211,-64c104,-6 114,-5 108,10c-8,21 2,22 29,3c18,-13 194,-14 1240,-13c980,2 1218,4 1216,15c-1,8 5,11 21,7c30,-8 73,9 87,34c9,17 8,20 -5,15c-8,-3 -12,-11 -9,-18c3,-6 -2,-2 -11,9c-17,22 -17,46 2,52c7,3 10,-3 7,-14c-4,-14 1,-18 21,-20c22,-1 30,6 46,40c21,47 26,186 9,233c-7,18 -7,30 1,40c7,9 10,68 7,181c-3,192 -11,214 -87,268l-43,30l-446,0c-437,0 -447,0 -444,-19c3,-16 1,-18 -11,-8c-7,6 -17,9 -20,5c-4,-3 -9,2 -13,11c-6,15 -68,16 -730,16c-610,0 -724,-2 -724,-14c0,-7 -11,-16 -25,-18c-19,-4 -25,-1 -25,13c0,18 -10,19 -157,18c-130,0 -165,-4 -198,-18zm2769,-79c47,-12 66,-58 66,-160c0,-81 1,-83 23,-78l22,6l-22,-11c-18,-9 -23,-21 -23,-50c0,-21 5,-41 12,-45c6,-4 8,-3 5,3c-4,6 2,13 13,16c21,5 28,-7 10,-18c-6,-4 -8,-11 -5,-16c6,-8 -6,-12 -22,-6c-5,1 -10,-60 -13,-135c-5,-130 -6,-139 -30,-163l-25,-25l-803,0c-740,-1 -802,-2 -802,-17c0,-15 -1,-15 -13,0c-11,16 -33,17 -212,15c-188,-3 -200,-4 -210,-23c-5,-11 -19,-21 -30,-23c-18,-3 -18,-2 3,13c12,9 22,20 22,24c0,12 -357,14 -365,2c-3,-6 -2,-11 4,-11c6,0 8,-7 4,-16c-5,-13 -7,-13 -14,-2c-5,7 -9,9 -9,3c0,-5 -7,1 -16,13c-14,21 -22,22 -157,22c-119,0 -145,3 -163,18c-42,33 -44,50 -44,331l0,271l29,32l29,33l164,5c257,8 2537,1 2572,-8zm91,8c-3,-5 -14,-10 -23,-9c-14,0 -13,2 3,9c27,11 27,11 20,0zm-1645,-726c0,-8 -19,-13 -24,-6c-3,5 1,9 9,9c8,0 15,-2 15,-3z"/>
    <path stroke="#000" fill="#0000ff" d="m1319.88541,1900.08804c0,-5 -9,-10 -19,-10c-11,0 -30,-14 -42,-31c-19,-27 -22,-47 -26,-168c-5,-170 7,-225 56,-258c42,-28 90,-29 124,-3c21,17 26,18 31,5c3,-10 19,-15 45,-15l39,0l1,125l1,125l-73,0l-73,0l-2,-36c-2,-29 0,-35 13,-31c12,5 15,-2 15,-37c0,-57 -8,-76 -31,-76c-22,0 -21,-9 -20,188c0,135 -6,175 -22,142c-3,-6 -4,-5 -3,2c4,16 57,12 69,-5c4,-7 6,-29 5,-49l-4,-38l65,0l64,0l-7,47c-8,64 -34,104 -76,119c-42,15 -130,18 -130,4z"/>
    <path stroke="#000" fill="#0000ff" d="m289.88541,1660.08804l0,-240l45,0l45,0l0,108c1,124 9,119 50,-25l23,-83l54,0l54,0l0,188c1,103 2,203 3,222c4,64 -1,70 -55,70l-49,0l0,-104l0,-104l28,-7c15,-4 22,-9 15,-12c-21,-8 -51,16 -61,49c-6,18 -20,66 -32,106l-23,72l-48,0l-49,0l0,-240zm260,-10c0,-5 -4,-10 -10,-10c-5,0 -10,5 -10,10c0,6 5,10 10,10c6,0 10,-4 10,-10z"/>
    <path stroke="#000" fill="#0000ff" d="m2530.88541,1660.08804l0,-240l64,0l64,0l0,240l0,240l-64,0l-63,0l-1,-240z"/>
    <path stroke="#000" fill="#0000ff" d="m946.88541,1874.08804c-4,-4 -7,-20 -7,-36c0,-18 -5,-28 -15,-28c-20,0 -20,-56 -1,-63c11,-5 15,-37 18,-152c4,-172 5,-175 100,-175c58,0 58,0 58,30c0,23 -4,30 -20,30c-22,0 -21,-3 -22,135c0,125 1,126 21,132c25,6 25,54 0,60c-11,3 -19,16 -21,37c-3,30 -5,31 -53,34c-28,2 -54,0 -58,-4z"/>
    <path stroke="#000" fill="#0000ff" d="m673.88541,1806.08804c-48,-22 -64,-76 -61,-211c3,-156 25,-185 141,-185c45,0 58,5 91,33l38,33l1,142c0,140 0,143 -26,168c-21,21 -37,27 -89,30c-42,3 -75,0 -95,-10zm96,-190c0,-106 -3,-135 -14,-139c-8,-3 -17,-3 -20,0c-3,4 -6,66 -6,140c0,126 1,133 20,133c19,0 20,-7 20,-134zm-89,-71c11,-4 18,-9 16,-12c-13,-13 -47,10 -46,30c1,16 2,18 6,5c2,-9 13,-20 24,-23z"/>
    <path stroke="#000" fill="#0000ff" d="m1640.88541,1811.08804c-13,-3 -34,-19 -45,-35c-19,-25 -21,-41 -21,-167c0,-138 0,-139 28,-166c25,-25 34,-28 100,-28c56,0 78,4 99,20c41,31 48,57 48,184c0,106 -2,121 -23,152c-12,18 -33,36 -47,40c-32,9 -108,9 -139,0zm89,-190c0,-97 -3,-131 -14,-140c-20,-17 -26,14 -26,136c0,110 5,133 26,133c11,0 14,-25 14,-129zm-95,-131c3,-5 1,-10 -4,-10c-6,0 -11,5 -11,10c0,6 2,10 4,10c3,0 8,-4 11,-10z"/>
    <path stroke="#000" fill="#0000ff" d="m1952.88541,1811.08804c-44,-19 -63,-80 -63,-196c0,-160 19,-193 120,-202c53,-5 64,-3 99,20c33,22 41,34 50,77c22,103 9,247 -26,282c-22,22 -143,35 -180,19zm99,-88c2,-16 2,-76 0,-135c-3,-99 -5,-108 -23,-108c-18,0 -19,8 -19,135c0,127 1,135 19,135c14,0 21,-8 23,-27zm-92,-23c0,-5 -5,-10 -11,-10c-5,0 -7,5 -4,10c3,6 8,10 11,10c2,0 4,-4 4,-10zm24,-75c-7,-16 -24,-21 -24,-6c0,8 7,13 27,20c1,1 0,-6 -3,-14z"/>
    <path stroke="#000" fill="#0000ff" d="m2235.88541,1805.08804c-22,-23 -29,-72 -24,-194c2,-71 8,-114 17,-124c20,-25 75,-32 110,-14c33,16 41,9 33,-30c-4,-24 -35,-32 -47,-13c-8,13 -115,13 -115,0c0,-5 5,-20 11,-34c32,-69 220,-59 256,14c9,17 13,83 13,213l0,187l-54,0c-30,0 -58,-5 -61,-10c-4,-7 -14,-5 -28,5c-28,19 -91,19 -111,0zm132,-162c-3,-93 -5,-108 -20,-111c-16,-3 -18,7 -18,107c0,105 1,111 20,111c20,0 21,-5 18,-107z"/>
    <path stroke="#000" fill="#0000ff" d="m2763.88541,1806.08804c-49,-22 -64,-67 -64,-191c0,-77 4,-116 16,-140c35,-75 162,-88 232,-23c17,17 22,32 22,75l0,53l-50,0l-50,0l0,-43c0,-43 -13,-67 -37,-67c-9,0 -13,19 -13,69l0,70l48,-1c105,0 102,-1 102,36c0,19 -6,37 -12,39c-10,4 -10,6 0,6c15,1 16,55 1,83c-23,43 -130,62 -195,34zm96,-97c0,-33 -3,-40 -17,-37c-13,2 -19,14 -21,41c-3,32 0,37 17,37c18,0 21,-6 21,-41z"/>
    <path stroke="#000" fill="#0000ff" d="m589.88541,2066.08804c0,-2 7,-7 16,-10c8,-3 12,-2 9,4c-6,10 -25,14 -25,6z"/>
   </g>
  </g>
 </g>

</svg>