<svg width="92" height="92" xmlns="http://www.w3.org/2000/svg">
 <g>
  <title>Layer 1</title>
  <g id="svg_1" stroke="null">
   <g id="svg_5" stroke="null">
    <title stroke="null">Layer 1</title>
    <g id="svg_2" fill="white" stroke="null">
     <g id="svg_3" fill="#000000" transform="translate(0 326) scale(0.1 -0.1)" stroke="null">
      <path id="svg_4" fill="#0000ff" d="m-792.22904,1318.35289c-42.88893,-19.57068 -47.8857,-37.89217 -47.8857,-174.88692c0,-117.84047 2.49838,-132.83078 24.15105,-155.73264c17.48869,-18.73788 35.81018,-24.15105 87.85986,-26.64944c43.30533,-2.49838 47.46931,-2.08199 44.97092,4.16397c-3.33118,8.74435 0.83279,9.16074 12.07553,1.24919c7.49515,-5.41317 80.7811,-5.82956 516.3328,-5.41317c408.06947,0.83279 507.17206,1.66559 506.33927,6.24596c-0.4164,3.33118 2.08199,4.58037 8.74435,2.91478c12.49192,-3.33118 30.39701,3.74758 36.22658,14.15751c3.74758,7.07876 3.33118,8.32795 -2.08199,6.24596c-3.33118,-1.24919 -4.99677,-4.58037 -3.74758,-7.49515c1.24919,-2.49838 -0.83279,-0.83279 -4.58037,3.74758c-7.07876,9.16074 -7.07876,19.15428 0.83279,21.65267c2.91478,1.24919 4.16397,-1.24919 2.91478,-5.82956c-1.66559,-5.82956 0.4164,-7.49515 8.74435,-8.32795c9.16074,-0.4164 12.49192,2.49838 19.15428,16.6559c8.74435,19.57068 10.82633,77.44992 3.74758,97.0206c-2.91478,7.49515 -2.91478,12.49192 0.4164,16.6559c2.91478,3.74758 4.16397,28.31502 2.91478,75.36793c-1.24919,79.94831 -4.58037,89.10905 -36.22658,111.59451l-17.90509,12.49192l-185.71325,0c-181.96567,0 -186.12965,0 -184.88046,-7.91155c1.24919,-6.66236 0.4164,-7.49515 -4.58037,-3.33118c-2.91478,2.49838 -7.07876,3.74758 -8.32795,2.08199c-1.66559,-1.24919 -3.74758,0.83279 -5.41317,4.58037c-2.49838,6.24596 -28.31502,6.66236 -303.97012,6.66236c-254.00243,0 -301.47173,-0.83279 -301.47173,-5.82956c0,-2.91478 -4.58037,-6.66236 -10.40994,-7.49515c-7.91155,-1.66559 -10.40994,-0.4164 -10.40994,5.41317c0,7.49515 -4.16397,7.91155 -65.3744,7.49515c-54.13166,0 -68.70557,-1.66559 -82.44669,-7.49515l0.00001,0zm1153.00446,-32.8954c19.57068,-4.99677 27.48223,-24.15105 27.48223,-66.62359c0,-33.72819 0.4164,-34.56099 9.57714,-32.479l9.16074,2.49838l-9.16074,-4.58037c-7.49515,-3.74758 -9.57714,-8.74435 -9.57714,-20.81987c0,-8.74435 2.08199,-17.07229 4.99677,-18.73788c2.49838,-1.66559 3.33118,-1.24919 2.08199,1.24919c-1.66559,2.49838 0.83279,5.41317 5.41317,6.66236c8.74435,2.08199 11.65913,-2.91478 4.16397,-7.49515c-2.49838,-1.66559 -3.33118,-4.58037 -2.08199,-6.66236c2.49838,-3.33118 -2.49838,-4.99677 -9.16074,-2.49838c-2.08199,0.4164 -4.16397,-24.98385 -5.41317,-56.21365c-2.08199,-54.13166 -2.49838,-57.87924 -12.49192,-67.87278l-10.40994,-10.40994l-334.36713,0c-308.13409,-0.4164 -333.95073,-0.83279 -333.95073,-7.07876c0,-6.24596 -0.4164,-6.24596 -5.41317,0c-4.58037,6.66236 -13.74111,7.07876 -88.27625,6.24596c-78.28272,-1.24919 -83.27948,-1.66559 -87.44346,-9.57714c-2.08199,-4.58037 -7.91155,-8.74435 -12.49192,-9.57714c-7.49515,-1.24919 -7.49515,-0.83279 1.24919,5.41317c4.99677,3.74758 9.16074,8.32795 9.16074,9.99354c0,4.99677 -148.65388,5.82956 -151.98506,0.83279c-1.24919,-2.49838 -0.83279,-4.58037 1.66559,-4.58037c2.49838,0 3.33118,-2.91478 1.66559,-6.66236c-2.08199,-5.41317 -2.91478,-5.41317 -5.82956,-0.83279c-2.08199,2.91478 -3.74758,3.74758 -3.74758,1.24919c0,-2.08199 -2.91478,0.4164 -6.66236,5.41317c-5.82956,8.74435 -9.16074,9.16074 -65.3744,9.16074c-49.55129,0 -60.37763,1.24919 -67.87278,7.49515c-17.48869,13.74111 -18.32149,20.81987 -18.32149,137.82755l0,112.8437l12.07553,13.32472l12.07553,13.74111l68.28918,2.08199c107.01414,3.33118 1056.40026,0.4164 1070.97417,-3.33118zm37.89217,3.33118c-1.24919,-2.08199 -5.82956,-4.16397 -9.57714,-3.74758c-5.82956,0 -5.41317,0.83279 1.24919,3.74758c11.24273,4.58037 11.24273,4.58037 8.32795,0zm-684.97376,-302.30453c0,-3.33118 -7.91155,-5.41317 -9.99354,-2.49838c-1.24919,2.08199 0.4164,3.74758 3.74758,3.74758c3.33118,0 6.24596,-0.83279 6.24596,-1.24919l0,-0.00001z" stroke="#000"/>
      <path id="svg_6" fill="#0000ff" d="m-336.27386,1255.47688c0,-2.08199 -3.74758,-4.16397 -7.91155,-4.16397c-4.58037,0 -12.49192,-5.82956 -17.48869,-12.90832c-7.91155,-11.24273 -9.16074,-19.57068 -10.82633,-69.95477c-2.08199,-70.78756 2.91478,-93.68942 23.31826,-107.43054c17.48869,-11.65913 37.47577,-12.07553 51.63328,-1.24919c8.74435,7.07876 10.82633,7.49515 12.90832,2.08199c1.24919,-4.16397 7.91155,-6.24596 18.73788,-6.24596l16.2395,0l0.4164,52.04968l0.4164,52.04968l-30.39701,0l-30.39701,0l-0.83279,-14.99031c-0.83279,-12.07553 0,-14.57391 5.41317,-12.90832c4.99677,2.08199 6.24596,-0.83279 6.24596,-15.4067c0,-23.73465 -3.33118,-31.6462 -12.90832,-31.6462c-9.16074,0 -8.74435,-3.74758 -8.32795,78.28272c0,56.21365 -2.49838,72.86955 -9.16074,59.12843c-1.24919,-2.49838 -1.66559,-2.08199 -1.24919,0.83279c1.66559,6.66236 23.73465,4.99677 28.73142,-2.08199c1.66559,-2.91478 2.49838,-12.07553 2.08199,-20.40347l-1.66559,-15.8231l27.06583,0l26.64944,0l-2.91478,19.57068c-3.33118,26.64944 -14.15751,43.30533 -31.6462,49.55129c-17.48869,6.24596 -54.13166,7.49515 -54.13166,1.66559l-0.00004,-0.00001z" stroke="#000"/>
      <path id="svg_7" fill="#0000ff" d="m-765.16321,1155.5415l0,-99.93538l18.73788,0l18.73788,0l0,44.97092c0.4164,51.63328 3.74758,49.55129 20.81987,-10.40994l9.57714,-34.56099l22.48546,0l22.48546,0l0,78.28272c0.4164,42.88893 0.83279,84.52868 1.24919,92.44023c1.66559,26.64944 -0.4164,29.14782 -22.90186,29.14782l-20.40347,0l0,-43.30533l0,-43.30533l11.65913,-2.91478c6.24596,-1.66559 9.16074,-3.74758 6.24596,-4.99677c-8.74435,-3.33118 -21.23627,6.66236 -25.40024,20.40347c-2.49838,7.49515 -8.32795,27.48223 -13.32472,44.13813l-9.57714,29.98061l-19.98708,0l-20.40347,0l0,-99.93538l0.00001,0zm108.26333,-4.16397c0,-2.08199 -1.66559,-4.16397 -4.16397,-4.16397c-2.08199,0 -4.16397,2.08199 -4.16397,4.16397c0,2.49838 2.08199,4.16397 4.16397,4.16397c2.49838,0 4.16397,-1.66559 4.16397,-4.16397z" stroke="#000"/>
      <path id="svg_8" fill="#0000ff" d="m167.98341,1155.5415l0,-99.93538l26.64944,0l26.64944,0l0,99.93538l0,99.93538l-26.64944,0l-26.23304,0l-0.4164,-99.93538z" stroke="#000"/>
      <path id="svg_9" fill="#0000ff" d="m-491.5901,1244.65055c-1.66559,-1.66559 -2.91478,-8.32795 -2.91478,-14.99031c0,-7.49515 -2.08199,-11.65913 -6.24596,-11.65913c-8.32795,0 -8.32795,-23.31826 -0.4164,-26.23304c4.58037,-2.08199 6.24596,-15.4067 7.49515,-63.29241c1.66559,-71.62036 2.08199,-72.86955 41.63974,-72.86955c24.15105,0 24.15105,0 24.15105,12.49192c0,9.57714 -1.66559,12.49192 -8.32795,12.49192c-9.16074,0 -8.74435,-1.24919 -9.16074,56.21365c0,52.04968 0.4164,52.46608 8.74435,54.96446c10.40994,2.49838 10.40994,22.48546 0,24.98385c-4.58037,1.24919 -7.91155,6.66236 -8.74435,15.4067c-1.24919,12.49192 -2.08199,12.90832 -22.06906,14.15751c-11.65913,0.83279 -22.48546,0 -24.15105,-1.66559l0,0.00002z" stroke="#000"/>
      <path id="svg_10" fill="#0000ff" d="m-605.2666,1216.33552c-19.98708,-9.16074 -26.64944,-31.6462 -25.40024,-87.85986c1.24919,-64.958 10.40994,-77.03352 58.71204,-77.03352c18.73788,0 24.15105,2.08199 37.89217,13.74111l15.8231,13.74111l0.4164,59.12843c0,58.29564 0,59.54483 -10.82633,69.95477c-8.74435,8.74435 -15.4067,11.24273 -37.05937,12.49192c-17.48869,1.24919 -31.22981,0 -39.55776,-4.16397l-0.00001,0.00001zm39.97415,-79.11551c0,-44.13813 -1.24919,-56.21365 -5.82956,-57.87924c-3.33118,-1.24919 -7.07876,-1.24919 -8.32795,0c-1.24919,1.66559 -2.49838,27.48223 -2.49838,58.29564c0,52.46608 0.4164,55.38086 8.32795,55.38086c7.91155,0 8.32795,-2.91478 8.32795,-55.79725l-0.00001,-0.00001zm-37.05937,-29.56422c4.58037,-1.66559 7.49515,-3.74758 6.66236,-4.99677c-5.41317,-5.41317 -19.57068,4.16397 -19.15428,12.49192c0.4164,6.66236 0.83279,7.49515 2.49838,2.08199c0.83279,-3.74758 5.41317,-8.32795 9.99354,-9.57714z" stroke="#000"/>
      <path id="svg_11" fill="#0000ff" d="m-202.61029,1218.41751c-5.41317,-1.24919 -14.15751,-7.91155 -18.73788,-14.57391c-7.91155,-10.40994 -8.74435,-17.07229 -8.74435,-69.53837c0,-57.46284 0,-57.87924 11.65913,-69.12197c10.40994,-10.40994 14.15751,-11.65913 41.63974,-11.65913c23.31826,0 32.479,1.66559 41.22334,8.32795c17.07229,12.90832 19.98708,23.73465 19.98708,76.61713c0,44.13813 -0.83279,50.38409 -9.57714,63.29241c-4.99677,7.49515 -13.74111,14.99031 -19.57068,16.6559c-13.32472,3.74758 -44.97092,3.74758 -57.87924,0l0,-0.00001zm37.05937,-79.11551c0,-40.39055 -1.24919,-54.54806 -5.82956,-58.29564c-8.32795,-7.07876 -10.82633,5.82956 -10.82633,56.63005c0,45.80372 2.08199,55.38086 10.82633,55.38086c4.58037,0 5.82956,-10.40994 5.82956,-53.71527zm-39.55776,-54.54806c1.24919,-2.08199 0.4164,-4.16397 -1.66559,-4.16397c-2.49838,0 -4.58037,2.08199 -4.58037,4.16397c0,2.49838 0.83279,4.16397 1.66559,4.16397c1.24919,0 3.33118,-1.66559 4.58037,-4.16397z" stroke="#000"/>
      <path id="svg_12" fill="#0000ff" d="m-72.6943,1218.41751c-18.32149,-7.91155 -26.23304,-33.31179 -26.23304,-81.61389c0,-66.62359 7.91155,-80.3647 49.96769,-84.11228c22.06906,-2.08199 26.64944,-1.24919 41.22334,8.32795c13.74111,9.16074 17.07229,14.15751 20.81987,32.0626c9.16074,42.88893 3.74758,102.85016 -10.82633,117.42407c-9.16074,9.16074 -59.54483,14.57391 -74.95154,7.91155l0.00001,0zm41.22334,-36.64297c0.83279,-6.66236 0.83279,-31.6462 0,-56.21365c-1.24919,-41.22334 -2.08199,-44.97092 -9.57714,-44.97092c-7.49515,0 -7.91155,3.33118 -7.91155,56.21365c0,52.88247 0.4164,56.21365 7.91155,56.21365c5.82956,0 8.74435,-3.33118 9.57714,-11.24273zm-38.30856,-9.57714c0,-2.08199 -2.08199,-4.16397 -4.58037,-4.16397c-2.08199,0 -2.91478,2.08199 -1.66559,4.16397c1.24919,2.49838 3.33118,4.16397 4.58037,4.16397c0.83279,0 1.66559,-1.66559 1.66559,-4.16397zm9.99354,-31.22981c-2.91478,-6.66236 -9.99354,-8.74435 -9.99354,-2.49838c0,3.33118 2.91478,5.41317 11.24273,8.32795c0.4164,0.4164 0,-2.49838 -1.24919,-5.82956l0,-0.00001z" stroke="#000"/>
      <path id="svg_13" fill="#0000ff" d="m45.14617,1215.91912c-9.16074,-9.57714 -12.07553,-29.98061 -9.99354,-80.7811c0.83279,-29.56422 3.33118,-47.46931 7.07876,-51.63328c8.32795,-10.40994 31.22981,-13.32472 45.80372,-5.82956c13.74111,6.66236 17.07229,3.74758 13.74111,-12.49192c-1.66559,-9.99354 -14.57391,-13.32472 -19.57068,-5.41317c-3.33118,5.41317 -47.8857,5.41317 -47.8857,0c0,-2.08199 2.08199,-8.32795 4.58037,-14.15751c13.32472,-28.73142 91.60743,-24.56745 106.59774,5.82956c3.74758,7.07876 5.41317,34.56099 5.41317,88.69265l0,77.86632l-22.48546,0c-12.49192,0 -24.15105,-2.08199 -25.40024,-4.16397c-1.66559,-2.91478 -5.82956,-2.08199 -11.65913,2.08199c-11.65913,7.91155 -37.89217,7.91155 -46.22011,0l-0.00001,-0.00001zm54.96446,-67.45638c-1.24919,-38.72496 -2.08199,-44.97092 -8.32795,-46.22011c-6.66236,-1.24919 -7.49515,2.91478 -7.49515,44.55452c0,43.72173 0.4164,46.22011 8.32795,46.22011c8.32795,0 8.74435,-2.08199 7.49515,-44.55452z" stroke="#000"/>
      <path id="svg_14" fill="#0000ff" d="m265.00401,1216.33552c-20.40347,-9.16074 -26.64944,-27.89863 -26.64944,-79.53191c0,-32.0626 1.66559,-48.3021 6.66236,-58.29564c14.57391,-31.22981 67.45638,-36.64297 96.6042,-9.57714c7.07876,7.07876 9.16074,13.32472 9.16074,31.22981l0,22.06906l-20.81987,0l-20.81987,0l0,-17.90509c0,-17.90509 -5.41317,-27.89863 -15.4067,-27.89863c-3.74758,0 -5.41317,7.91155 -5.41317,28.73142l0,29.14782l19.98708,-0.4164c43.72173,0 42.47254,-0.4164 42.47254,14.99031c0,7.91155 -2.49838,15.4067 -4.99677,16.2395c-4.16397,1.66559 -4.16397,2.49838 0,2.49838c6.24596,0.4164 6.66236,22.90186 0.4164,34.56099c-9.57714,17.90509 -54.13166,25.81664 -81.1975,14.15751l0,0.00001zm39.97415,-40.39055c0,-13.74111 -1.24919,-16.6559 -7.07876,-15.4067c-5.41317,0.83279 -7.91155,5.82956 -8.74435,17.07229c-1.24919,13.32472 0,15.4067 7.07876,15.4067c7.49515,0 8.74435,-2.49838 8.74435,-17.07229z" stroke="#000"/>
      <path id="svg_15" fill="#0000ff" d="m-640.24398,1324.59885c0,-0.83279 2.91478,-2.91478 6.66236,-4.16397c3.33118,-1.24919 4.99677,-0.83279 3.74758,1.66559c-2.49838,4.16397 -10.40994,5.82956 -10.40994,2.49838z" stroke="#000"/>
     </g>
    </g>
   </g>
  </g>
  <g stroke="null" id="svg_17">
   <g stroke="null" id="svg_16">
    <title stroke="null">Layer 1</title>
    <g stroke="null" fill="white" id="svg_18">
     <g stroke="null" transform="translate(0 326) scale(0.1 -0.1)" fill="#000000" id="svg_19">
      <path stroke="#000" d="m-998.82754,1749.17331c-54.89179,-25.65305 -61.28695,-49.66868 -61.28695,-229.24004c0,-154.46412 3.19758,-174.11327 30.90994,-204.1328c22.38306,-24.56143 45.83198,-31.65696 112.44822,-34.93182c55.42472,-3.27486 60.75402,-2.72905 57.55644,5.4581c-4.26344,11.462 1.06586,12.00781 15.45497,1.63743c9.59274,-7.09553 103.38841,-7.64133 660.83315,-7.09553c522.27136,1.09162 649.10869,2.18324 648.04283,8.18714c-0.53293,4.36648 2.66465,6.00391 11.19153,3.82067c15.9879,-4.36648 38.90389,4.91229 46.36491,18.55753c4.79637,9.27876 4.26344,10.91619 -2.66465,8.18714c-4.26344,-1.63743 -6.39516,-6.00391 -4.79637,-9.82457c1.59879,-3.27486 -1.06586,-1.09162 -5.86223,4.91229c-9.05981,12.00781 -9.05981,25.10724 1.06586,28.3821c3.73051,1.63743 5.3293,-1.63743 3.73051,-7.64133c-2.13172,-7.64133 0.53293,-9.82457 11.19153,-10.91619c11.72446,-0.54581 15.9879,3.27486 24.51478,21.83239c11.19153,25.65305 13.85618,101.52059 4.79637,127.17364c-3.73051,9.82457 -3.73051,16.37429 0.53293,21.83239c3.73051,4.91229 5.3293,37.11505 3.73051,98.79154c-1.59879,104.79545 -5.86223,116.80326 -46.36491,146.27698l-22.91599,16.37429l-237.68676,0c-232.89039,0 -238.21969,0 -236.6209,-10.37038c1.59879,-8.73295 0.53293,-9.82457 -5.86223,-4.36648c-3.73051,3.27486 -9.05981,4.91229 -10.6586,2.72905c-2.13172,-1.63743 -4.79637,1.09162 -6.92809,6.00391c-3.19758,8.18714 -36.23924,8.73295 -389.03887,8.73295c-325.08727,0 -385.84129,-1.09162 -385.84129,-7.64133c0,-3.82067 -5.86223,-8.73295 -13.32325,-9.82457c-10.12567,-2.18324 -13.32325,-0.54581 -13.32325,7.09553c0,9.82457 -5.3293,10.37038 -83.67,9.82457c-69.28089,0 -87.93344,-2.18324 -105.52013,-9.82457l-0.00001,-0.00003zm1475.68305,-43.11896c25.04771,-6.54972 35.17338,-31.65696 35.17338,-87.32954c0,-44.21058 0.53293,-45.3022 12.25739,-42.57315l11.72446,3.27486l-11.72446,-6.00391c-9.59274,-4.91229 -12.25739,-11.462 -12.25739,-27.29048c0,-11.462 2.66465,-22.37819 6.39516,-24.56143c3.19758,-2.18324 4.26344,-1.63743 2.66465,1.63743c-2.13172,3.27486 1.06586,7.09553 6.92809,8.73295c11.19153,2.72905 14.92204,-3.82067 5.3293,-9.82457c-3.19758,-2.18324 -4.26344,-6.00391 -2.66465,-8.73295c3.19758,-4.36648 -3.19758,-6.54972 -11.72446,-3.27486c-2.66465,0.54581 -5.3293,-32.74858 -6.92809,-73.6843c-2.66465,-70.95525 -3.19758,-75.86754 -15.9879,-88.96697l-13.32325,-13.64524l-427.94276,0c-394.36817,-0.54581 -427.40983,-1.09162 -427.40983,-9.27876c0,-8.18714 -0.53293,-8.18714 -6.92809,0c-5.86223,8.73295 -17.58669,9.27876 -112.98115,8.18714c-100.19083,-1.63743 -106.58599,-2.18324 -111.91529,-12.55362c-2.66465,-6.00391 -10.12567,-11.462 -15.9879,-12.55362c-9.59274,-1.63743 -9.59274,-1.09162 1.59879,7.09553c6.39516,4.91229 11.72446,10.91619 11.72446,13.09943c0,6.54972 -190.25599,7.64133 -194.51943,1.09162c-1.59879,-3.27486 -1.06586,-6.00391 2.13172,-6.00391c3.19758,0 4.26344,-3.82067 2.13172,-8.73295c-2.66465,-7.09553 -3.73051,-7.09553 -7.46102,-1.09162c-2.66465,3.82067 -4.79637,4.91229 -4.79637,1.63743c0,-2.72905 -3.73051,0.54581 -8.52688,7.09553c-7.46102,11.462 -11.72446,12.00781 -83.67,12.00781c-63.41866,0 -77.27484,1.63743 -86.86758,9.82457c-22.38306,18.01172 -23.44892,27.29048 -23.44892,180.66299l0,147.91441l15.45497,17.46591l15.45497,18.01172l87.40051,2.72905c136.963,4.36648 1352.0433,0.54581 1370.69585,-4.36648l0,-0.00002zm48.49663,4.36648c-1.59879,-2.72905 -7.46102,-5.4581 -12.25739,-4.91229c-7.46102,0 -6.92809,1.09162 1.59879,4.91229c14.38911,6.00391 14.38911,6.00391 10.6586,0zm-876.66978,-396.25779c0,-4.36648 -10.12567,-7.09553 -12.79032,-3.27486c-1.59879,2.72905 0.53293,4.91229 4.79637,4.91229c4.26344,0 7.99395,-1.09162 7.99395,-1.63743z" fill="#0000ff" id="svg_20"/>
      <path stroke="#000" d="m-415.26924,1666.75606c0,-2.72905 -4.79637,-5.4581 -10.12567,-5.4581c-5.86223,0 -15.9879,-7.64133 -22.38306,-16.9201c-10.12567,-14.73686 -11.72446,-25.65305 -13.85618,-91.69602c-2.66465,-92.78764 3.73051,-122.80717 29.84408,-140.81888c22.38306,-15.28267 47.9637,-15.82848 66.08331,-1.63743c11.19153,9.27876 13.85618,9.82457 16.52083,2.72905c1.59879,-5.4581 10.12567,-8.18714 23.98185,-8.18714l20.78427,0l0.53293,68.2262l0.53293,68.2262l-38.90389,0l-38.90389,0l-1.06586,-19.64915c-1.06586,-15.82848 0,-19.10334 6.92809,-16.9201c6.39516,2.72905 7.99395,-1.09162 7.99395,-20.19496c0,-31.11115 -4.26344,-41.48153 -16.52083,-41.48153c-11.72446,0 -11.19153,-4.91229 -10.6586,102.61221c0,73.6843 -3.19758,95.51668 -11.72446,77.50497c-1.59879,-3.27486 -2.13172,-2.72905 -1.59879,1.09162c2.13172,8.73295 30.37701,6.54972 36.77217,-2.72905c2.13172,-3.82067 3.19758,-15.82848 2.66465,-26.74467l-2.13172,-20.74077l34.64045,0l34.10752,0l-3.73051,25.65305c-4.26344,34.93182 -18.11962,56.7642 -40.50268,64.95135c-22.38306,8.18714 -69.28089,9.82457 -69.28089,2.18324l0,0.00001z" fill="#0000ff" id="svg_21"/>
      <path stroke="#000" d="m-964.18709,1535.76175l0,-130.99431l23.98185,0l23.98185,0l0,58.94744c0.53293,67.68039 4.79637,64.95135 26.6465,-13.64524l12.25739,-45.3022l28.77822,0l28.77822,0l0,102.61221c0.53293,56.21839 1.06586,110.79935 1.59879,121.16974c2.13172,34.93182 -0.53293,38.20667 -29.31115,38.20667l-26.11357,0l0,-56.7642l0,-56.7642l14.92204,-3.82067c7.99395,-2.18324 11.72446,-4.91229 7.99395,-6.54972c-11.19153,-4.36648 -27.17943,8.73295 -32.50873,26.74467c-3.19758,9.82457 -10.6586,36.02344 -17.05376,57.85582l-12.25739,39.29829l-25.58064,0l-26.11357,0l0,-130.99431l0,0.00001zm138.56179,-5.4581c0,-2.72905 -2.13172,-5.4581 -5.3293,-5.4581c-2.66465,0 -5.3293,2.72905 -5.3293,5.4581c0,3.27486 2.66465,5.4581 5.3293,5.4581c3.19758,0 5.3293,-2.18324 5.3293,-5.4581z" fill="#0000ff" id="svg_22"/>
      <path stroke="#000" d="m230.10894,1535.76175l0,-130.99431l34.10752,0l34.10752,0l0,130.99431l0,130.99431l-34.10752,0l-33.57459,0l-0.53293,-130.99431z" fill="#0000ff" id="svg_23"/>
      <path stroke="#000" d="m-614.05211,1652.56501c-2.13172,-2.18324 -3.73051,-10.91619 -3.73051,-19.64915c0,-9.82457 -2.66465,-15.28267 -7.99395,-15.28267c-10.6586,0 -10.6586,-30.56534 -0.53293,-34.38601c5.86223,-2.72905 7.99395,-20.19496 9.59274,-82.96306c2.13172,-93.87926 2.66465,-95.51668 53.293,-95.51668c30.90994,0 30.90994,0 30.90994,16.37429c0,12.55362 -2.13172,16.37429 -10.6586,16.37429c-11.72446,0 -11.19153,-1.63743 -11.72446,73.6843c0,68.2262 0.53293,68.77201 11.19153,72.04687c13.32325,3.27486 13.32325,29.47372 0,32.74858c-5.86223,1.63743 -10.12567,8.73295 -11.19153,20.19496c-1.59879,16.37429 -2.66465,16.9201 -28.24529,18.55753c-14.92204,1.09162 -28.77822,0 -30.90994,-2.18324l0,-0.00001z" fill="#0000ff" id="svg_24"/>
      <path stroke="#000" d="m-759.54199,1615.44996c-25.58064,-12.00781 -34.10752,-41.48153 -32.50873,-115.16583c1.59879,-85.1463 13.32325,-100.97478 75.14312,-100.97478c23.98185,0 30.90994,2.72905 48.49663,18.01172l20.25134,18.01172l0.53293,77.50497c0,76.41335 0,78.05078 -13.85618,91.69602c-11.19153,11.462 -19.71841,14.73686 -47.43077,16.37429c-22.38306,1.63743 -39.96975,0 -50.62835,-5.4581l0.00001,-0.00001zm51.16128,-103.70383c0,-57.85582 -1.59879,-73.6843 -7.46102,-75.86754c-4.26344,-1.63743 -9.05981,-1.63743 -10.6586,0c-1.59879,2.18324 -3.19758,36.02344 -3.19758,76.41335c0,68.77201 0.53293,72.59268 10.6586,72.59268c10.12567,0 10.6586,-3.82067 10.6586,-73.13849zm-47.43077,-38.75248c5.86223,-2.18324 9.59274,-4.91229 8.52688,-6.54972c-6.92809,-7.09553 -25.04771,5.4581 -24.51478,16.37429c0.53293,8.73295 1.06586,9.82457 3.19758,2.72905c1.06586,-4.91229 6.92809,-10.91619 12.79032,-12.55362z" fill="#0000ff" id="svg_25"/>
      <path stroke="#000" d="m-244.19872,1618.179c-6.92809,-1.63743 -18.11962,-10.37038 -23.98185,-19.10334c-10.12567,-13.64524 -11.19153,-22.37819 -11.19153,-91.15021c0,-75.32173 0,-75.86754 14.92204,-90.6044c13.32325,-13.64524 18.11962,-15.28267 53.293,-15.28267c29.84408,0 41.56854,2.18324 52.76007,10.91619c21.85013,16.9201 25.58064,31.11115 25.58064,100.42897c0,57.85582 -1.06586,66.04296 -12.25739,82.96306c-6.39516,9.82457 -17.58669,19.64915 -25.04771,21.83239c-17.05376,4.91229 -57.55644,4.91229 -74.07726,0l-0.00001,0.00001zm47.43077,-103.70383c0,-52.94353 -1.59879,-71.50106 -7.46102,-76.41335c-10.6586,-9.27876 -13.85618,7.64133 -13.85618,74.23011c0,60.03906 2.66465,72.59268 13.85618,72.59268c5.86223,0 7.46102,-13.64524 7.46102,-70.40944zm-50.62835,-71.50106c1.59879,-2.72905 0.53293,-5.4581 -2.13172,-5.4581c-3.19758,0 -5.86223,2.72905 -5.86223,5.4581c0,3.27486 1.06586,5.4581 2.13172,5.4581c1.59879,0 4.26344,-2.18324 5.86223,-5.4581z" fill="#0000ff" id="svg_26"/>
      <path stroke="#000" d="m-77.92457,1618.179c-23.44892,-10.37038 -33.57459,-43.66477 -33.57459,-106.97869c0,-87.32954 10.12567,-105.34126 63.95159,-110.25354c28.24529,-2.72905 34.10752,-1.63743 52.76007,10.91619c17.58669,12.00781 21.85013,18.55753 26.6465,42.02734c11.72446,56.21839 4.79637,134.81498 -13.85618,153.91831c-11.72446,12.00781 -76.20898,19.10334 -95.92739,10.37038l0,0.00001zm52.76007,-48.03125c1.06586,-8.73295 1.06586,-41.48153 0,-73.6843c-1.59879,-54.03515 -2.66465,-58.94744 -12.25739,-58.94744c-9.59274,0 -10.12567,4.36648 -10.12567,73.6843c0,69.31782 0.53293,73.6843 10.12567,73.6843c7.46102,0 11.19153,-4.36648 12.25739,-14.73686zm-49.02956,-12.55362c0,-2.72905 -2.66465,-5.4581 -5.86223,-5.4581c-2.66465,0 -3.73051,2.72905 -2.13172,5.4581c1.59879,3.27486 4.26344,5.4581 5.86223,5.4581c1.06586,0 2.13172,-2.18324 2.13172,-5.4581zm12.79032,-40.93572c-3.73051,-8.73295 -12.79032,-11.462 -12.79032,-3.27486c0,4.36648 3.73051,7.09553 14.38911,10.91619c0.53293,0.54581 0,-3.27486 -1.59879,-7.64133z" fill="#0000ff" id="svg_27"/>
      <path stroke="#000" d="m72.8946,1614.90415c-11.72446,-12.55362 -15.45497,-39.29829 -12.79032,-105.88707c1.06586,-38.75248 4.26344,-62.2223 9.05981,-67.68039c10.6586,-13.64524 39.96975,-17.46591 58.6223,-7.64133c17.58669,8.73295 21.85013,4.91229 17.58669,-16.37429c-2.13172,-13.09943 -18.65255,-17.46591 -25.04771,-7.09553c-4.26344,7.09553 -61.28695,7.09553 -61.28695,0c0,-2.72905 2.66465,-10.91619 5.86223,-18.55753c17.05376,-37.66086 117.24459,-32.20277 136.43007,7.64133c4.79637,9.27876 6.92809,45.3022 6.92809,116.25745l0,102.0664l-28.77822,0c-15.9879,0 -30.90994,-2.72905 -32.50873,-5.4581c-2.13172,-3.82067 -7.46102,-2.72905 -14.92204,2.72905c-14.92204,10.37038 -48.49663,10.37038 -59.15523,0l0.00001,0.00001zm70.34675,-88.42116c-1.59879,-50.7603 -2.66465,-58.94744 -10.6586,-60.58487c-8.52688,-1.63743 -9.59274,3.82067 -9.59274,58.40163c0,57.31001 0.53293,60.58487 10.6586,60.58487c10.6586,0 11.19153,-2.72905 9.59274,-58.40163z" fill="#0000ff" id="svg_28"/>
      <path stroke="#000" d="m354.28162,1615.44996c-26.11357,-12.00781 -34.10752,-36.56924 -34.10752,-104.24964c0,-42.02734 2.13172,-63.31392 8.52688,-76.41335c18.65255,-40.93572 86.33465,-48.03125 123.63975,-12.55362c9.05981,9.27876 11.72446,17.46591 11.72446,40.93572l0,28.92791l-26.6465,0l-26.6465,0l0,-23.46981c0,-23.46981 -6.92809,-36.56924 -19.71841,-36.56924c-4.79637,0 -6.92809,10.37038 -6.92809,37.66086l0,38.20667l25.58064,-0.54581c55.95765,0 54.35886,-0.54581 54.35886,19.64915c0,10.37038 -3.19758,20.19496 -6.39516,21.28658c-5.3293,2.18324 -5.3293,3.27486 0,3.27486c7.99395,0.54581 8.52688,30.01953 0.53293,45.3022c-12.25739,23.46981 -69.28089,33.8402 -103.92134,18.55753l0,-0.00001zm51.16128,-52.94353c0,-18.01172 -1.59879,-21.83239 -9.05981,-20.19496c-6.92809,1.09162 -10.12567,7.64133 -11.19153,22.37819c-1.59879,17.46591 0,20.19496 9.05981,20.19496c9.59274,0 11.19153,-3.27486 11.19153,-22.37819z" fill="#0000ff" id="svg_29"/>
      <path stroke="#000" d="m-804.3081,1757.36046c0,-1.09162 3.73051,-3.82067 8.52688,-5.4581c4.26344,-1.63743 6.39516,-1.09162 4.79637,2.18324c-3.19758,5.4581 -13.32325,7.64133 -13.32325,3.27486z" fill="#0000ff" id="svg_30"/>
     </g>
    </g>
   </g>
  </g>
  <g stroke="null" id="svg_32">
   <g stroke="null" id="svg_31">
    <title stroke="null">Layer 1</title>
    <g stroke="null" id="svg_33" fill="white">
     <g stroke="null" id="svg_34" fill="#000000" transform="translate(0 326) scale(0.1 -0.1)">
      <path stroke="#000" id="svg_35" fill="#0000ff" d="m70.91156,2944.89714c-27.78856,-13.74756 -31.02607,-26.61763 -31.02607,-122.85058c0,-82.77789 1.61875,-93.30794 15.64793,-109.39551c11.33126,-13.16256 23.2021,-16.96508 56.92608,-18.72009c28.05835,-1.75501 30.75627,-1.46251 29.13752,2.92501c-2.15834,6.14253 0.53959,6.43503 7.82396,0.8775c4.85626,-3.80252 52.33962,-4.09502 334.54192,-3.80252c264.39603,0.58501 328.6065,1.17 328.06691,4.38752c-0.26979,2.34001 1.34896,3.21752 5.66563,2.04751c8.09376,-2.34001 19.69481,2.63251 23.47189,9.94505c2.42813,4.97252 2.15834,5.85003 -1.34896,4.38752c-2.15834,-0.8775 -3.2375,-3.21752 -2.42813,-5.26503c0.80938,-1.75501 -0.53959,-0.58501 -2.96771,2.63251c-4.58646,6.43503 -4.58646,13.45507 0.53959,15.21007c1.88854,0.8775 2.69792,-0.8775 1.88854,-4.09502c-1.07917,-4.09502 0.26979,-5.26503 5.66563,-5.85003c5.93542,-0.2925 8.09376,1.75501 12.41043,11.70006c5.66563,13.74756 7.01459,54.40525 2.42813,68.15282c-1.88854,5.26503 -1.88854,8.77504 0.26979,11.70006c1.88854,2.63251 2.69792,19.8901 1.88854,52.94275c-0.80938,56.16026 -2.96771,62.59529 -23.47189,78.39037l-11.60105,8.77504l-120.32717,0c-117.89905,0 -120.59696,0 -119.78759,-5.55753c0.80938,-4.68002 0.26979,-5.26503 -2.96771,-2.34001c-1.88854,1.75501 -4.58646,2.63251 -5.39584,1.46251c-1.07917,-0.8775 -2.42813,0.58501 -3.50729,3.21752c-1.61875,4.38752 -18.34585,4.68002 -196.94806,4.68002c-164.57304,0 -195.32932,-0.58501 -195.32932,-4.09502c0,-2.04751 -2.96771,-4.68002 -6.7448,-5.26503c-5.12605,-1.17 -6.7448,-0.2925 -6.7448,3.80252c0,5.26503 -2.69792,5.55753 -42.35732,5.26503c-35.07294,0 -44.51566,-1.17 -53.41879,-5.26503l0.00001,-0.00002zm747.0537,-23.10761c12.68022,-3.51002 17.80626,-16.96508 17.80626,-46.80022c0,-23.69261 0.26979,-24.27761 6.20521,-22.81511l5.93542,1.75501l-5.93542,-3.21752c-4.85626,-2.63251 -6.20521,-6.14253 -6.20521,-14.62507c0,-6.14253 1.34896,-11.99256 3.2375,-13.16256c1.61875,-1.17 2.15834,-0.8775 1.34896,0.8775c-1.07917,1.75501 0.53959,3.80252 3.50729,4.68002c5.66563,1.46251 7.55417,-2.04751 2.69792,-5.26503c-1.61875,-1.17 -2.15834,-3.21752 -1.34896,-4.68002c1.61875,-2.34001 -1.61875,-3.51002 -5.93542,-1.75501c-1.34896,0.2925 -2.69792,-17.55008 -3.50729,-39.48769c-1.34896,-38.02518 -1.61875,-40.65769 -8.09376,-47.67772l-6.7448,-7.31253l-216.64288,0c-199.64599,-0.2925 -216.37308,-0.58501 -216.37308,-4.97252c0,-4.38752 -0.26979,-4.38752 -3.50729,0c-2.96771,4.68002 -8.90313,4.97252 -57.19588,4.38752c-50.72087,-0.8775 -53.95838,-1.17 -56.65629,-6.72753c-1.34896,-3.21752 -5.12605,-6.14253 -8.09376,-6.72753c-4.85626,-0.8775 -4.85626,-0.58501 0.80938,3.80252c3.2375,2.63251 5.93542,5.85003 5.93542,7.02004c0,3.51002 -96.3157,4.09502 -98.47403,0.58501c-0.80938,-1.75501 -0.53959,-3.21752 1.07917,-3.21752c1.61875,0 2.15834,-2.04751 1.07917,-4.68002c-1.34896,-3.80252 -1.88854,-3.80252 -3.77708,-0.58501c-1.34896,2.04751 -2.42813,2.63251 -2.42813,0.8775c0,-1.46251 -1.88854,0.2925 -4.31667,3.80252c-3.77708,6.14253 -5.93542,6.43503 -42.35732,6.43503c-32.10523,0 -39.11982,0.8775 -43.97608,5.26503c-11.33126,9.65255 -11.87084,14.62507 -11.87084,96.81795l0,79.26787l7.82396,9.36004l7.82396,9.65255l44.24587,1.46251c69.33651,2.34001 684.46198,0.2925 693.90469,-2.34001l0.00001,0zm24.55106,2.34001c-0.80938,-1.46251 -3.77708,-2.92501 -6.20521,-2.63251c-3.77708,0 -3.50729,0.58501 0.80938,2.63251c7.28438,3.21752 7.28438,3.21752 5.39584,0zm-443.80763,-212.356c0,-2.34001 -5.12605,-3.80252 -6.47501,-1.75501c-0.80938,1.46251 0.26979,2.63251 2.42813,2.63251c2.15834,0 4.04688,-0.58501 4.04688,-0.8775z"/>
      <path stroke="#000" id="svg_36" fill="#0000ff" d="m366.33365,2900.72943c0,-1.46251 -2.42813,-2.92501 -5.12605,-2.92501c-2.96771,0 -8.09376,-4.09502 -11.33126,-9.06754c-5.12605,-7.89754 -5.93542,-13.74756 -7.01459,-49.14023c-1.34896,-49.72523 1.88854,-65.81281 15.10835,-75.46535c11.33126,-8.19004 24.28127,-8.48254 33.45419,-0.8775c5.66563,4.97252 7.01459,5.26503 8.36355,1.46251c0.80938,-2.92501 5.12605,-4.38752 12.14063,-4.38752l10.52188,0l0.26979,36.56267l0.26979,36.56267l-19.69481,0l-19.69481,0l-0.53959,-10.53005c-0.53959,-8.48254 0,-10.23755 3.50729,-9.06754c3.2375,1.46251 4.04688,-0.58501 4.04688,-10.82255c0,-16.67258 -2.15834,-22.2301 -8.36355,-22.2301c-5.93542,0 -5.66563,-2.63251 -5.39584,54.99026c0,39.48769 -1.61875,51.18774 -5.93542,41.53519c-0.80938,-1.75501 -1.07917,-1.46251 -0.80938,0.58501c1.07917,4.68002 15.37814,3.51002 18.61564,-1.46251c1.07917,-2.04751 1.61875,-8.48254 1.34896,-14.33257l-1.07917,-11.11505l17.53647,0l17.26668,0l-1.88854,13.74756c-2.15834,18.72009 -9.17292,30.42014 -20.50418,34.80766c-11.33126,4.38752 -35.07294,5.26503 -35.07294,1.17l-0.00001,-0.00001z"/>
      <path stroke="#000" id="svg_37" fill="#0000ff" d="m88.44803,2830.5291l0,-70.20033l12.14063,0l12.14063,0l0,31.59015c0.26979,36.27017 2.42813,34.80766 13.48959,-7.31253l6.20521,-24.27761l14.56876,0l14.56876,0l0,54.99026c0.26979,30.12764 0.53959,59.37778 0.80938,64.93531c1.07917,18.72009 -0.26979,20.47509 -14.83856,20.47509l-13.2198,0l0,-30.42014l0,-30.42014l7.55417,-2.04751c4.04688,-1.17 5.93542,-2.63251 4.04688,-3.51002c-5.66563,-2.34001 -13.75938,4.68002 -16.4573,14.33257c-1.61875,5.26503 -5.39584,19.30509 -8.63334,31.00515l-6.20521,21.0601l-12.95001,0l-13.2198,0l0,-70.20033l0.00001,-0.00001zm70.14589,-2.92501c0,-1.46251 -1.07917,-2.92501 -2.69792,-2.92501c-1.34896,0 -2.69792,1.46251 -2.69792,2.92501c0,1.75501 1.34896,2.92501 2.69792,2.92501c1.61875,0 2.69792,-1.17 2.69792,-2.92501z"/>
      <path stroke="#000" id="svg_38" fill="#0000ff" d="m693.05161,2830.5291l0,-70.20033l17.26668,0l17.26668,0l0,70.20033l0,70.20033l-17.26668,0l-16.99689,0l-0.26979,-70.20033z"/>
      <path stroke="#000" id="svg_39" fill="#0000ff" d="m265.70128,2893.12439c-1.07917,-1.17 -1.88854,-5.85003 -1.88854,-10.53005c0,-5.26503 -1.34896,-8.19004 -4.04688,-8.19004c-5.39584,0 -5.39584,-16.38008 -0.26979,-18.42759c2.96771,-1.46251 4.04688,-10.82255 4.85626,-44.46021c1.07917,-50.31024 1.34896,-51.18774 26.97919,-51.18774c15.64793,0 15.64793,0 15.64793,8.77504c0,6.72753 -1.07917,8.77504 -5.39584,8.77504c-5.93542,0 -5.66563,-0.8775 -5.93542,39.48769c0,36.56267 0.26979,36.85517 5.66563,38.61018c6.7448,1.75501 6.7448,15.79507 0,17.55008c-2.96771,0.8775 -5.12605,4.68002 -5.66563,10.82255c-0.80938,8.77504 -1.34896,9.06754 -14.29897,9.94505c-7.55417,0.58501 -14.56876,0 -15.64793,-1.17l-0.00001,-0.00001z"/>
      <path stroke="#000" id="svg_40" fill="#0000ff" d="m192.0481,2873.2343c-12.95001,-6.43503 -17.26668,-22.2301 -16.4573,-61.71779c0.80938,-45.63022 6.7448,-54.11276 38.04065,-54.11276c12.14063,0 15.64793,1.46251 24.55106,9.65255l10.25209,9.65255l0.26979,41.53519c0,40.9502 0,41.8277 -7.01459,49.14023c-5.66563,6.14253 -9.9823,7.89754 -24.01147,8.77504c-11.33126,0.8775 -20.23439,0 -25.63023,-2.92501l-0.00001,-0.00001zm25.90002,-55.57526c0,-31.00515 -0.80938,-39.48769 -3.77708,-40.65769c-2.15834,-0.8775 -4.58646,-0.8775 -5.39584,0c-0.80938,1.17 -1.61875,19.30509 -1.61875,40.9502c0,36.85517 0.26979,38.90268 5.39584,38.90268c5.12605,0 5.39584,-2.04751 5.39584,-39.19519zm-24.01147,-20.7676c2.96771,-1.17 4.85626,-2.63251 4.31667,-3.51002c-3.50729,-3.80252 -12.68022,2.92501 -12.41043,8.77504c0.26979,4.68002 0.53959,5.26503 1.61875,1.46251c0.53959,-2.63251 3.50729,-5.85003 6.47501,-6.72753l0,-0.00001z"/>
      <path stroke="#000" id="svg_41" fill="#0000ff" d="m452.93684,2874.6968c-3.50729,-0.8775 -9.17292,-5.55753 -12.14063,-10.23755c-5.12605,-7.31253 -5.66563,-11.99256 -5.66563,-48.84773c0,-40.36519 0,-40.65769 7.55417,-48.55523c6.7448,-7.31253 9.17292,-8.19004 26.97919,-8.19004c15.10835,0 21.04377,1.17 26.7094,5.85003c11.06147,9.06754 12.95001,16.67258 12.95001,53.82026c0,31.00515 -0.53959,35.39267 -6.20521,44.46021c-3.2375,5.26503 -8.90313,10.53005 -12.68022,11.70006c-8.63334,2.63251 -29.13752,2.63251 -37.50107,0l-0.00001,0zm24.01147,-55.57526c0,-28.37263 -0.80938,-38.31768 -3.77708,-40.9502c-5.39584,-4.97252 -7.01459,4.09502 -7.01459,39.78018c0,32.17515 1.34896,38.90268 7.01459,38.90268c2.96771,0 3.77708,-7.31253 3.77708,-37.73268l0,0.00001zm-25.63023,-38.31768c0.80938,-1.46251 0.26979,-2.92501 -1.07917,-2.92501c-1.61875,0 -2.96771,1.46251 -2.96771,2.92501c0,1.75501 0.53959,2.92501 1.07917,2.92501c0.80938,0 2.15834,-1.17 2.96771,-2.92501z"/>
      <path stroke="#000" id="svg_42" fill="#0000ff" d="m537.11191,2874.6968c-11.87084,-5.55753 -16.99689,-23.40011 -16.99689,-57.33027c0,-46.80022 5.12605,-56.45276 32.37502,-59.08528c14.29897,-1.46251 17.26668,-0.8775 26.7094,5.85003c8.90313,6.43503 11.06147,9.94505 13.48959,22.52261c5.93542,30.12764 2.42813,72.24784 -7.01459,82.48539c-5.93542,6.43503 -38.58024,10.23755 -48.56253,5.55753l-0.00001,-0.00001zm26.7094,-25.74012c0.53959,-4.68002 0.53959,-22.2301 0,-39.48769c-0.80938,-28.95764 -1.34896,-31.59015 -6.20521,-31.59015c-4.85626,0 -5.12605,2.34001 -5.12605,39.48769c0,37.14767 0.26979,39.48769 5.12605,39.48769c3.77708,0 5.66563,-2.34001 6.20521,-7.89754zm-24.82085,-6.72753c0,-1.46251 -1.34896,-2.92501 -2.96771,-2.92501c-1.34896,0 -1.88854,1.46251 -1.07917,2.92501c0.80938,1.75501 2.15834,2.92501 2.96771,2.92501c0.53959,0 1.07917,-1.17 1.07917,-2.92501zm6.47501,-21.9376c-1.88854,-4.68002 -6.47501,-6.14253 -6.47501,-1.75501c0,2.34001 1.88854,3.80252 7.28438,5.85003c0.26979,0.2925 0,-1.75501 -0.80938,-4.09502z"/>
      <path stroke="#000" id="svg_43" fill="#0000ff" d="m613.46301,2872.9418c-5.93542,-6.72753 -7.82396,-21.0601 -6.47501,-56.74527c0.53959,-20.7676 2.15834,-33.34515 4.58646,-36.27017c5.39584,-7.31253 20.23439,-9.36004 29.67711,-4.09502c8.90313,4.68002 11.06147,2.63251 8.90313,-8.77504c-1.07917,-7.02004 -9.44271,-9.36004 -12.68022,-3.80252c-2.15834,3.80252 -31.02607,3.80252 -31.02607,0c0,-1.46251 1.34896,-5.85003 2.96771,-9.94505c8.63334,-20.1826 59.35421,-17.25758 69.06672,4.09502c2.42813,4.97252 3.50729,24.27761 3.50729,62.30279l0,54.69776l-14.56876,0c-8.09376,0 -15.64793,-1.46251 -16.4573,-2.92501c-1.07917,-2.04751 -3.77708,-1.46251 -7.55417,1.46251c-7.55417,5.55753 -24.55106,5.55753 -29.9469,0l-0.00001,-0.00001zm35.61253,-47.38523c-0.80938,-27.20263 -1.34896,-31.59015 -5.39584,-32.46765c-4.31667,-0.8775 -4.85626,2.04751 -4.85626,31.29765c0,30.71264 0.26979,32.46765 5.39584,32.46765c5.39584,0 5.66563,-1.46251 4.85626,-31.29765z"/>
      <path stroke="#000" id="svg_44" fill="#0000ff" d="m755.91312,2873.2343c-13.2198,-6.43503 -17.26668,-19.59759 -17.26668,-55.86776c0,-22.52261 1.07917,-33.93016 4.31667,-40.9502c9.44271,-21.9376 43.70629,-25.74012 62.59172,-6.72753c4.58646,4.97252 5.93542,9.36004 5.93542,21.9376l0,15.50257l-13.48959,0l-13.48959,0l0,-12.57756c0,-12.57756 -3.50729,-19.59759 -9.9823,-19.59759c-2.42813,0 -3.50729,5.55753 -3.50729,20.1826l0,20.47509l12.95001,-0.2925c28.32814,0 27.51877,-0.2925 27.51877,10.53005c0,5.55753 -1.61875,10.82255 -3.2375,11.40755c-2.69792,1.17 -2.69792,1.75501 0,1.75501c4.04688,0.2925 4.31667,16.08758 0.26979,24.27761c-6.20521,12.57756 -35.07294,18.13509 -52.60941,9.94505l0.00001,0.00001zm25.90002,-28.37263c0,-9.65255 -0.80938,-11.70006 -4.58646,-10.82255c-3.50729,0.58501 -5.12605,4.09502 -5.66563,11.99256c-0.80938,9.36004 0,10.82255 4.58646,10.82255c4.85626,0 5.66563,-1.75501 5.66563,-11.99256z"/>
      <path stroke="#000" id="svg_45" fill="#0000ff" d="m169.38559,2949.28466c0,-0.58501 1.88854,-2.04751 4.31667,-2.92501c2.15834,-0.8775 3.2375,-0.58501 2.42813,1.17c-1.61875,2.92501 -6.7448,4.09502 -6.7448,1.75501z"/>
     </g>
    </g>
   </g>
  </g>
 </g>

</svg>